<?xml version="1.0" encoding="UTF-8" standalone="no"?><!DOCTYPE svg PUBLIC "-//W3C//DTD SVG 1.1//EN" "http://www.w3.org/Graphics/SVG/1.1/DTD/svg11.dtd"><svg width="193.428" height="38.907" viewBox="0 0 169 32" version="1.1" xmlns="http://www.w3.org/2000/svg" xmlns:xlink="http://www.w3.org/1999/xlink" xml:space="preserve" xmlns:serif="http://www.serif.com/" style="fill-rule:evenodd;clip-rule:evenodd;stroke-linejoin:round;stroke-miterlimit:1.41421;"><g id="Ebene-1" serif:id="Ebene 1"><path d="M54.046,22.941c0.361,-0.818 0.628,-1.676 0.803,-2.553c0.088,-0.447 0.149,-0.857 0.187,-1.349l0.028,-0.286l0.019,-0.351c0.005,-0.148 0.005,-0.299 0.005,-0.448c-0.071,-7.571 -6.003,-13.742 -13.48,-14.186c-0.358,-0.015 -0.712,-0.026 -1.064,-0.018c-0.101,0 -0.199,0.003 -0.294,0.005c-0.221,0.004 -0.437,0.019 -0.657,0.036c-7.384,0.587 -13.201,6.759 -13.201,14.296c0,5.106 2.672,9.586 6.688,12.129c-6.168,-8.302 -2.099,-15.117 -0.592,-16.86c1.599,-1.853 3.324,-3.012 5.55,-3.702c1.111,-0.351 2.3,-0.518 3.457,-0.503c1.15,0.012 2.264,0.239 3.315,0.666c2.106,0.856 3.891,2.561 4.858,4.672c0.485,1.056 0.772,2.212 0.836,3.383c0.007,0.149 0.011,0.298 0.017,0.444l0,0.199l-0.013,0.262c-0.004,0.238 -0.031,0.553 -0.074,0.822c-0.088,0.563 -0.23,1.115 -0.438,1.652c-0.804,2.132 -2.625,3.917 -4.842,4.675c-0.556,0.193 -1.13,0.328 -1.714,0.392c-0.294,0.035 -0.585,0.051 -0.882,0.051l-0.06,0.003l-0.028,0l0.015,0l-0.132,-0.007l-0.278,-0.006c-0.124,-0.013 -0.226,-0.01 -0.373,-0.034c-1.127,-0.13 -2.222,-0.568 -3.144,-1.255c-0.924,-0.689 -1.673,-1.625 -2.135,-2.692c-0.472,-1.058 -0.654,-2.298 -0.523,-3.431c0.13,-1.135 0.624,-2.23 1.396,-3.101c0.77,-0.872 1.812,-1.52 2.955,-1.803c0.582,-0.14 1.156,-0.206 1.777,-0.162c0.52,0.03 1.118,0.177 1.631,0.412c1.051,0.472 1.932,1.348 2.411,2.418c0.485,1.064 0.594,2.349 0.208,3.424c-0.374,1.093 -1.247,2.029 -2.339,2.49c-1.084,0.462 -2.383,0.471 -3.39,-0.116c-1.023,-0.568 -1.727,-1.685 -1.793,-2.886c-0.096,-1.18 0.555,-2.365 1.62,-2.922c0.527,-0.284 1.147,-0.413 1.737,-0.356c0.577,0.058 1.137,0.325 1.552,0.744c0.851,0.838 1.042,2.354 0.243,3.272c-0.382,0.459 -0.955,0.767 -1.564,0.816c-0.606,0.059 -1.212,-0.178 -1.61,-0.644c-0.398,-0.441 -0.57,-1.127 -0.41,-1.702c0.156,-0.578 0.666,-1.066 1.28,-1.181c0.078,-0.006 0.152,-0.028 0.231,-0.026l0.104,-0.006l0.135,0.006c0.139,0.02 0.288,0.056 0.424,0.119c0.284,0.125 0.515,0.344 0.662,0.62c0.139,0.271 0.202,0.605 0.138,0.908c-0.059,0.297 -0.238,0.58 -0.499,0.756c-0.254,0.185 -0.591,0.267 -0.901,0.211c-0.304,-0.059 -0.588,-0.269 -0.729,-0.551c-0.145,-0.291 -0.159,-0.644 0,-0.928c0.155,-0.281 0.469,-0.469 0.806,-0.466c0.326,-0.012 0.64,0.222 0.739,0.538c0.118,0.325 -0.024,0.709 -0.337,0.862c-0.152,0.078 -0.341,0.099 -0.499,0.049c-0.169,-0.055 -0.304,-0.187 -0.371,-0.346c-0.065,-0.162 -0.055,-0.357 0.043,-0.51c0.09,-0.154 0.269,-0.244 0.451,-0.244c-0.182,-0.012 -0.366,0.078 -0.475,0.235c-0.106,0.146 -0.128,0.357 -0.064,0.537c0.064,0.18 0.209,0.331 0.389,0.398c0.185,0.066 0.391,0.051 0.568,-0.031c0.366,-0.154 0.561,-0.611 0.439,-0.989c-0.097,-0.39 -0.468,-0.693 -0.881,-0.705c-0.403,-0.017 -0.808,0.199 -1.024,0.543c-0.219,0.354 -0.222,0.815 -0.054,1.182c0.166,0.373 0.517,0.672 0.931,0.765c0.401,0.093 0.837,0.015 1.188,-0.207c0.353,-0.224 0.616,-0.589 0.718,-0.998c0.104,-0.416 0.049,-0.847 -0.126,-1.228c-0.181,-0.383 -0.485,-0.703 -0.87,-0.898c-0.188,-0.097 -0.393,-0.162 -0.618,-0.188l-0.133,-0.019c-0.076,-0.005 -0.115,-0.002 -0.173,-0.003c-0.107,-0.002 -0.208,0.015 -0.316,0.026c-0.833,0.12 -1.581,0.743 -1.842,1.566c-0.268,0.827 -0.074,1.742 0.465,2.415c0.517,0.677 1.41,1.072 2.267,1.029c0.853,-0.027 1.69,-0.416 2.267,-1.06c0.29,-0.321 0.516,-0.698 0.66,-1.108c0.072,-0.207 0.127,-0.416 0.159,-0.643c0.028,-0.209 0.032,-0.424 0.028,-0.636c-0.04,-0.856 -0.382,-1.703 -0.962,-2.347c-0.581,-0.648 -1.394,-1.088 -2.267,-1.216c-0.859,-0.124 -1.74,0.01 -2.522,0.384c-0.783,0.376 -1.455,0.981 -1.91,1.725c-0.231,0.371 -0.408,0.779 -0.524,1.205c-0.053,0.214 -0.097,0.419 -0.124,0.663c-0.022,0.187 -0.032,0.425 -0.029,0.631c0.007,1.734 0.951,3.445 2.454,4.375c1.506,0.967 3.435,1.038 5.049,0.437c1.637,-0.603 3.003,-1.918 3.66,-3.563c0.162,-0.413 0.284,-0.839 0.362,-1.279c0.04,-0.217 0.068,-0.488 0.081,-0.637c0.015,-0.253 0.023,-0.443 0.019,-0.671c-0.019,-0.868 -0.186,-1.736 -0.516,-2.547c-0.641,-1.626 -1.891,-3.018 -3.478,-3.817c-0.799,-0.408 -1.628,-0.67 -2.57,-0.774c-0.829,-0.088 -1.727,-0.045 -2.576,0.126c-1.713,0.334 -3.319,1.219 -4.54,2.48c-1.228,1.262 -2.074,2.911 -2.371,4.671c-0.276,1.761 -0.091,3.519 0.538,5.171c0.619,1.639 1.684,3.12 3.054,4.244c1.366,1.127 3.046,1.895 4.811,2.186c0.216,0.037 0.482,0.066 0.71,0.096l0.278,0.021l0.136,0.011l0.203,0.011c0.439,0.017 0.87,0.013 1.31,-0.018c0.872,-0.058 1.737,-0.213 2.576,-0.461c3.376,-0.989 6.266,-3.518 7.69,-6.791" style="fill:#5eb565;fill-rule:nonzero;"/><path d="M7.381,10.099c-1.92,1.974 -2.884,4.288 -2.884,6.945c0,2.66 0.979,4.93 2.941,6.813c1.963,1.883 4.23,2.823 6.812,2.823c2.578,0 4.777,-0.725 6.591,-2.172c0.45,-0.342 0.988,-0.477 1.616,-0.396c0.636,0.077 1.149,0.354 1.542,0.829c0.367,0.502 0.512,1.06 0.434,1.676c-0.078,0.62 -0.354,1.113 -0.827,1.484c-2.634,2.047 -5.675,3.077 -9.119,3.077c-3.95,0 -7.345,-1.39 -10.186,-4.164c-2.844,-2.775 -4.277,-6.125 -4.301,-10.045c0.024,-3.895 1.457,-7.234 4.301,-10.008c2.841,-2.778 6.236,-4.176 10.186,-4.204c3.444,0 6.485,1.028 9.119,3.079c0.473,0.396 0.749,0.894 0.827,1.497c0.078,0.608 -0.074,1.158 -0.456,1.657c-0.378,0.501 -0.884,0.79 -1.52,0.869c-0.628,0.082 -1.166,-0.064 -1.616,-0.434c-1.765,-1.447 -3.94,-2.169 -6.532,-2.169c-2.593,0 -4.902,0.945 -6.928,2.843" style="fill:#5eb565;fill-rule:nonzero;"/><path d="M71.21,21.191l-0.078,0c-0.766,0 -1.37,-0.304 -1.819,-0.907l-5.642,-7.899l0,16.62c0,0.608 -0.219,1.12 -0.654,1.54c-0.432,0.419 -0.951,0.633 -1.557,0.633c-0.605,0 -1.121,-0.214 -1.54,-0.633c-0.419,-0.42 -0.63,-0.932 -0.63,-1.54l0,-23.291c0,-0.605 0.211,-1.113 0.63,-1.538c0.419,-0.422 0.935,-0.633 1.54,-0.633l0.116,0c0.762,0 1.343,0.306 1.738,0.912l7.858,10.892l7.852,-10.892c0.448,-0.606 1.041,-0.912 1.78,-0.912l0.038,0c0.609,0.029 1.124,0.253 1.56,0.674c0.433,0.422 0.65,0.92 0.65,1.497l0,23.291c0,0.579 -0.217,1.084 -0.65,1.52c-0.436,0.434 -0.951,0.653 -1.56,0.653c-0.603,0 -1.117,-0.214 -1.539,-0.633c-0.424,-0.42 -0.634,-0.932 -0.634,-1.54l0,-16.62l-5.685,7.899c-0.443,0.603 -1.039,0.907 -1.774,0.907" style="fill:#5eb565;fill-rule:nonzero;"/><path d="M93.908,16.966c0,2.657 0.883,4.94 2.648,6.851c1.761,1.905 3.891,2.858 6.373,2.858c2.491,0 4.604,-0.966 6.358,-2.9c1.748,-1.934 2.624,-4.201 2.624,-6.809c0,-2.604 -0.87,-4.873 -2.605,-6.807c-1.736,-1.935 -3.862,-2.903 -6.377,-2.903c-2.511,0 -4.643,0.956 -6.396,2.86c-1.749,1.911 -2.625,4.192 -2.625,6.85m-0.57,10.03c-2.621,-2.793 -3.929,-6.135 -3.929,-10.03c0,-3.896 1.308,-7.236 3.929,-10.028c2.617,-2.788 5.808,-4.182 9.572,-4.182c3.766,0 6.957,1.414 9.573,4.244c2.622,2.829 3.929,6.165 3.929,10.004c0,3.843 -1.331,7.158 -3.986,9.947c-1.184,1.32 -2.608,2.353 -4.264,3.099c-1.661,0.754 -3.383,1.125 -5.173,1.125c-3.817,0 -7.034,-1.393 -9.651,-4.179" style="fill:#5eb565;fill-rule:nonzero;"/><path d="M124.385,31.177c-0.607,0 -1.118,-0.213 -1.542,-0.633c-0.42,-0.417 -0.63,-0.93 -0.63,-1.539l0,-23.291c0,-0.606 0.21,-1.118 0.63,-1.538c0.424,-0.421 0.935,-0.63 1.542,-0.63c0.604,0 1.124,0.209 1.559,0.63c0.434,0.42 0.65,0.932 0.65,1.538l0,21.082l10.7,0c0.579,0 1.086,0.215 1.519,0.652c0.433,0.432 0.652,0.949 0.652,1.538c0,0.592 -0.219,1.105 -0.652,1.541c-0.433,0.431 -0.94,0.65 -1.519,0.65l-12.909,0Z" style="fill:#5eb565;fill-rule:nonzero;"/><path d="M145.74,16.966c0,2.657 0.883,4.94 2.645,6.851c1.765,1.905 3.89,2.858 6.376,2.858c2.487,0 4.606,-0.966 6.356,-2.9c1.752,-1.934 2.625,-4.201 2.625,-6.809c0,-2.604 -0.866,-4.873 -2.606,-6.807c-1.736,-1.935 -3.863,-2.903 -6.375,-2.903c-2.513,0 -4.646,0.956 -6.394,2.86c-1.752,1.911 -2.627,4.192 -2.627,6.85m-0.571,10.03c-2.618,-2.793 -3.927,-6.135 -3.927,-10.03c0,-3.896 1.309,-7.236 3.927,-10.028c2.62,-2.788 5.809,-4.182 9.575,-4.182c3.761,0 6.949,1.414 9.572,4.244c2.615,2.829 3.924,6.165 3.924,10.004c0,3.843 -1.328,7.158 -3.985,9.947c-1.185,1.32 -2.603,2.353 -4.265,3.099c-1.652,0.754 -3.381,1.125 -5.168,1.125c-3.818,0 -7.033,-1.393 -9.653,-4.179" style="fill:#5eb565;fill-rule:nonzero;"/></g></svg>