<svg xmlns="http://www.w3.org/2000/svg" width="193.428" height="38.907" viewBox="3.029 -0.805 193.428 38.907" enable-background="new 3.029 -0.805 193.428 38.907"><path fill="#52A85C" d="M66.319 28.612c.415-.938.724-1.925.923-2.933.1-.517.172-.983.219-1.553l.027-.329.02-.402.007-.517c-.077-8.705-6.9-15.797-15.497-16.309-.41-.021-.818-.031-1.223-.025l-.337.009c-.252.006-.502.024-.752.042-8.492.675-15.177 7.772-15.177 16.438 0 5.87 3.071 11.021 7.689 13.944-7.094-9.547-2.418-17.382-.685-19.388 1.842-2.129 3.825-3.461 6.384-4.256 1.276-.402 2.641-.595 3.975-.578 1.322.013 2.601.275 3.812.771 2.419.977 4.472 2.938 5.582 5.37.562 1.21.889 2.538.963 3.89l.02.508v.229l-.014.299c-.006.271-.039.638-.088.948-.098.644-.262 1.28-.5 1.895-.926 2.456-3.021 4.508-5.569 5.378-.637.224-1.296.376-1.969.452-.337.038-.676.059-1.018.061l-.064.002h-.019l-.15-.007-.318-.011-.432-.036c-1.294-.151-2.552-.651-3.613-1.442-1.062-.791-1.927-1.869-2.457-3.097-.542-1.218-.75-2.643-.601-3.944.151-1.305.715-2.562 1.605-3.566.884-1.004 2.081-1.749 3.397-2.073.667-.16 1.328-.229 2.045-.184.596.035 1.286.204 1.875.473 1.206.541 2.219 1.549 2.771 2.778.557 1.224.68 2.7.24 3.939-.431 1.255-1.434 2.33-2.689 2.861-1.25.531-2.744.541-3.901-.133-1.173-.654-1.985-1.938-2.057-3.318-.114-1.356.636-2.719 1.861-3.361.603-.327 1.316-.475 1.995-.409.663.07 1.307.374 1.787.858.978.962 1.194 2.7.277 3.76-.438.528-1.1.882-1.801.938-.694.066-1.389-.205-1.848-.735-.46-.513-.657-1.298-.473-1.962.178-.663.77-1.225 1.471-1.354l.266-.032.123-.008.154.008c.161.021.332.065.488.139.322.14.592.398.76.711.162.313.231.697.16 1.047-.068.342-.277.666-.574.871-.295.211-.683.303-1.039.235-.35-.063-.673-.305-.838-.632-.167-.331-.182-.739 0-1.063.18-.325.543-.546.927-.541.376-.011.737.256.853.622.133.37-.03.813-.389.992-.173.089-.393.11-.574.055-.191-.062-.348-.213-.425-.396-.075-.188-.065-.412.046-.586.107-.177.312-.285.522-.285-.21-.01-.425.092-.547.271-.124.173-.149.411-.075.619.073.207.24.383.449.457.211.075.445.059.649-.035.421-.179.647-.697.509-1.139-.113-.445-.541-.795-1.017-.807-.46-.023-.927.223-1.175.624-.254.405-.256.933-.064 1.359.194.428.593.768 1.07.876.462.105.962.016 1.369-.24.405-.256.705-.673.826-1.147.116-.473.053-.968-.147-1.412-.21-.436-.559-.805-1.001-1.028-.217-.106-.453-.185-.711-.217l-.153-.021-.196-.004-.362.027c-.961.142-1.818.858-2.119 1.805-.31.95-.085 2.001.531 2.776.599.779 1.625 1.234 2.608 1.181.98-.029 1.945-.478 2.609-1.217.333-.367.593-.804.758-1.274.084-.238.144-.478.18-.739.031-.239.037-.487.031-.729-.041-.984-.436-1.958-1.105-2.699-.664-.744-1.599-1.252-2.605-1.398-.988-.143-2 .016-2.9.443-.9.433-1.671 1.125-2.195 1.983-.264.425-.469.896-.599 1.384-.062.248-.112.481-.144.764-.025.212-.041.491-.037.729.008 1.993 1.097 3.955 2.821 5.026 1.731 1.111 3.952 1.192 5.809.501 1.878-.692 3.449-2.202 4.207-4.098.185-.471.328-.963.416-1.467.045-.25.08-.562.094-.735.019-.289.025-.508.021-.77-.021-.997-.215-1.995-.592-2.926-.738-1.873-2.179-3.472-4.002-4.395-.918-.467-1.869-.768-2.95-.886-.954-.105-1.985-.053-2.963.141-1.97.389-3.815 1.402-5.221 2.854-1.411 1.447-2.385 3.345-2.724 5.371-.32 2.02-.104 4.044.615 5.942.713 1.89 1.941 3.588 3.513 4.881 1.57 1.295 3.501 2.178 5.533 2.514.248.044.551.077.816.107l.316.027.156.012.236.013c.503.02 1.001.014 1.504-.021 1.002-.066 1.996-.244 2.964-.529 3.88-1.138 7.203-4.05 8.841-7.812z"/><path fill="#fff" d="M66.319 26.924c.415-.938.724-1.926.923-2.934.1-.516.172-.983.219-1.551l.027-.33.02-.403.007-.516c-.077-8.706-6.9-15.798-15.497-16.311-.41-.02-.818-.03-1.223-.024l-.337.008c-.252.006-.502.025-.752.043-8.492.675-15.177 7.772-15.177 16.439 0 5.869 3.071 11.02 7.689 13.942-7.094-9.547-2.418-17.381-.685-19.386 1.842-2.129 3.825-3.461 6.384-4.256 1.276-.403 2.641-.596 3.975-.578 1.322.011 2.601.274 3.812.77 2.419.978 4.472 2.939 5.582 5.371.562 1.21.889 2.538.963 3.891l.02.508v.229l-.014.299c-.006.271-.039.639-.088.947-.098.646-.262 1.282-.5 1.896-.926 2.457-3.021 4.508-5.569 5.379-.637.223-1.296.375-1.969.451-.337.039-.676.059-1.018.061l-.064.002h-.019l-.15-.006-.316-.012-.432-.037c-1.294-.151-2.552-.651-3.613-1.442-1.062-.791-1.927-1.869-2.457-3.097-.542-1.217-.75-2.644-.601-3.945.151-1.303.715-2.561 1.605-3.564.884-1.004 2.081-1.749 3.397-2.072.667-.161 1.328-.231 2.045-.186.596.035 1.286.204 1.875.474 1.206.541 2.219 1.549 2.771 2.777.557 1.224.68 2.701.24 3.94-.431 1.254-1.434 2.33-2.689 2.861-1.25.53-2.744.541-3.901-.132-1.173-.655-1.985-1.938-2.057-3.319-.114-1.357.636-2.718 1.861-3.362.603-.328 1.316-.473 1.995-.409.663.069 1.307.374 1.787.859.978.961 1.194 2.701.277 3.759-.438.529-1.1.882-1.801.938-.694.064-1.389-.206-1.848-.737-.46-.512-.657-1.297-.473-1.96.178-.665.77-1.226 1.471-1.354l.266-.032.123-.008.154.008c.161.021.332.064.488.137.322.141.592.4.76.712.162.314.231.698.16 1.048-.068.341-.277.664-.574.87-.295.211-.683.302-1.039.236-.35-.063-.673-.305-.838-.632-.167-.332-.182-.738 0-1.064.18-.326.543-.545.927-.541.376-.01.737.256.853.622.133.37-.03.814-.389.993-.173.089-.393.109-.574.054-.191-.062-.348-.213-.425-.396-.075-.188-.065-.41.046-.586.107-.177.312-.284.522-.284-.21-.01-.425.091-.547.27-.124.173-.149.411-.075.618.073.207.24.384.449.457.211.076.445.059.649-.034.421-.179.647-.698.509-1.138-.113-.446-.541-.795-1.017-.807-.46-.023-.927.223-1.175.624-.254.404-.256.933-.064 1.357.194.43.593.77 1.07.877.462.106.962.017 1.369-.24.405-.256.705-.673.826-1.147.116-.474.053-.967-.147-1.411-.21-.438-.559-.805-1.001-1.029-.217-.105-.453-.184-.711-.217l-.153-.021-.196-.005-.362.027c-.961.143-1.818.859-2.119 1.805-.31.95-.085 2.001.531 2.776.599.779 1.625 1.234 2.608 1.181.98-.028 1.945-.478 2.609-1.218.333-.366.593-.803.758-1.272.084-.238.144-.478.18-.738.031-.241.037-.489.031-.731-.041-.984-.436-1.958-1.105-2.698-.664-.745-1.599-1.252-2.605-1.4-.988-.142-2 .016-2.9.444-.9.433-1.671 1.125-2.195 1.982-.264.424-.469.896-.599 1.384-.062.248-.112.481-.144.766-.025.211-.041.49-.037.727.008 1.993 1.097 3.955 2.821 5.027 1.731 1.111 3.952 1.192 5.809.5 1.878-.691 3.449-2.202 4.207-4.097.185-.473.328-.965.416-1.469.045-.25.08-.562.094-.733.019-.289.025-.508.021-.771-.021-.997-.215-1.996-.592-2.926-.738-1.873-2.179-3.47-4.002-4.393-.918-.468-1.869-.769-2.95-.887-.954-.104-1.985-.052-2.963.143-1.97.388-3.815 1.401-5.221 2.854-1.411 1.448-2.385 3.344-2.724 5.37-.32 2.021-.104 4.045.615 5.945.713 1.888 1.941 3.586 3.513 4.879 1.57 1.295 3.501 2.178 5.533 2.514.248.044.551.077.816.107l.316.026.156.013.236.012c.503.021 1.001.014 1.504-.021 1.002-.065 1.996-.244 2.964-.529 3.878-1.138 7.201-4.05 8.839-7.811z"/><path fill="#52A85C" d="M11.517 13.866c-2.21 2.269-3.315 4.933-3.315 7.988 0 3.055 1.128 5.665 3.381 7.828 2.257 2.164 4.866 3.243 7.829 3.243 2.966 0 5.495-.832 7.581-2.494.516-.395 1.136-.546 1.861-.454s1.314.41 1.768.952c.423.575.589 1.22.5 1.929-.089.712-.407 1.28-.954 1.703-3.025 2.358-6.519 3.54-10.481 3.54-4.541 0-8.441-1.597-11.71-4.789-3.269-3.19-4.917-7.042-4.948-11.55.031-4.479 1.679-8.313 4.948-11.505 3.269-3.19 7.17-4.802 11.71-4.833 3.963 0 7.457 1.182 10.481 3.54.546.454.865 1.028.954 1.725.089.695-.085 1.332-.523 1.906-.438.575-1.02.906-1.745.997-.725.092-1.346-.072-1.861-.497-2.028-1.664-4.533-2.497-7.511-2.497-2.982-.001-5.635 1.089-7.965 3.268zm73.384 12.754h-.09c-.88 0-1.574-.35-2.09-1.045l-6.487-9.078v19.109c0 .694-.252 1.285-.752 1.768-.497.485-1.094.729-1.792.729-.692 0-1.287-.242-1.769-.729-.483-.481-.729-1.072-.729-1.768v-26.779c0-.696.245-1.283.729-1.768.48-.484 1.074-.728 1.769-.728h.138c.875 0 1.543.35 1.996 1.045l9.03 12.525 9.036-12.525c.512-.695 1.193-1.045 2.039-1.045h.047c.697.031 1.295.289 1.795.772.496.483.749 1.059.749 1.723v26.779c0 .665-.253 1.246-.749 1.746-.5.499-1.098.749-1.795.749-.693 0-1.287-.242-1.768-.729-.485-.481-.729-1.072-.729-1.768v-19.106l-6.534 9.078c-.516.695-1.199 1.045-2.044 1.045zm25.44 6.672c-3.014-3.207-4.518-7.051-4.518-11.528 0-4.479 1.504-8.321 4.518-11.528 3.011-3.207 6.679-4.811 11.005-4.811 4.327 0 7.995 1.626 11.006 4.879 3.012 3.253 4.519 7.088 4.519 11.505 0 4.419-1.529 8.229-4.584 11.438-1.361 1.514-2.998 2.701-4.9 3.563-1.908.861-3.891 1.293-5.949 1.293-4.388-.002-8.086-1.605-11.097-4.811zm.657-11.53c0 3.057 1.018 5.682 3.045 7.873 2.022 2.194 4.471 3.29 7.328 3.29 2.856 0 5.293-1.11 7.307-3.334 2.012-2.225 3.02-4.834 3.02-7.829s-1-5.604-2.996-7.829c-1.998-2.225-4.441-3.336-7.33-3.336s-5.34 1.097-7.352 3.29c-2.015 2.195-3.022 4.82-3.022 7.875zm35.039 16.339c-.697 0-1.287-.242-1.771-.729-.484-.481-.727-1.072-.727-1.768v-26.777c0-.696.241-1.283.727-1.768.484-.484 1.074-.728 1.771-.728.692 0 1.291.243 1.791.728s.748 1.071.748 1.768v24.237h12.301c.666 0 1.248.248 1.748.749.496.498.75 1.089.75 1.77 0 .682-.254 1.271-.75 1.771-.5.499-1.082.749-1.748.749l-14.84-.002zm23.893-4.809c-3.011-3.207-4.515-7.051-4.515-11.528 0-4.479 1.504-8.321 4.515-11.528 3.012-3.207 6.68-4.811 11.008-4.811 4.324 0 7.992 1.626 11.006 4.879 3.009 3.253 4.513 7.088 4.513 11.505 0 4.419-1.527 8.229-4.582 11.438-1.361 1.514-2.994 2.701-4.902 3.563-1.902.861-3.889 1.293-5.943 1.293-4.393-.002-8.088-1.605-11.1-4.811zm.657-11.53c0 3.057 1.013 5.682 3.041 7.873 2.027 2.194 4.472 3.29 7.328 3.29 2.861 0 5.297-1.11 7.31-3.334 2.014-2.225 3.019-4.834 3.019-7.829s-.996-5.604-2.994-7.829c-1.996-2.225-4.443-3.336-7.332-3.336-2.89 0-5.34 1.097-7.353 3.29-2.015 2.195-3.019 4.82-3.019 7.875z"/><path fill="#fff" d="M11.517 12.177c-2.21 2.27-3.315 4.933-3.315 7.988 0 3.057 1.128 5.666 3.381 7.83 2.257 2.163 4.866 3.243 7.829 3.243 2.966 0 5.495-.832 7.581-2.495.516-.395 1.136-.545 1.861-.454s1.314.409 1.768.952c.423.576.589 1.22.5 1.93-.089.711-.407 1.279-.954 1.701-3.025 2.359-6.519 3.541-10.481 3.541-4.541 0-8.441-1.596-11.71-4.789-3.269-3.19-4.917-7.042-4.948-11.55.031-4.479 1.679-8.314 4.948-11.505 3.269-3.191 7.17-4.802 11.71-4.833 3.963 0 7.457 1.181 10.481 3.54.547.453.865 1.027.954 1.724s-.085 1.332-.523 1.906c-.438.576-1.02.907-1.745.999s-1.346-.074-1.861-.498c-2.028-1.664-4.533-2.498-7.511-2.498-2.982-.001-5.635 1.089-7.965 3.268zm73.384 12.753h-.09c-.88 0-1.574-.35-2.09-1.046l-6.487-9.076v19.107c0 .697-.252 1.286-.752 1.77-.497.484-1.094.728-1.792.728-.692 0-1.287-.242-1.769-.728-.483-.482-.729-1.071-.729-1.77v-26.777c0-.696.245-1.283.729-1.769.48-.485 1.074-.727 1.769-.727h.138c.875 0 1.543.349 1.996 1.045l9.03 12.524 9.036-12.523c.512-.696 1.193-1.045 2.039-1.045h.047c.697.03 1.295.289 1.795.771.496.485.749 1.06.749 1.725v26.777c0 .666-.253 1.247-.749 1.748-.5.498-1.098.748-1.795.748-.693 0-1.287-.242-1.768-.728-.485-.482-.729-1.071-.729-1.77v-19.106l-6.534 9.076c-.516.698-1.199 1.046-2.044 1.046zm25.44 6.672c-3.014-3.207-4.518-7.049-4.518-11.528s1.504-8.321 4.518-11.528c3.011-3.207 6.679-4.81 11.005-4.81 4.327 0 7.995 1.626 11.006 4.878 3.012 3.253 4.519 7.088 4.519 11.505 0 4.419-1.529 8.229-4.584 11.438-1.361 1.515-2.998 2.7-4.9 3.563-1.908.862-3.891 1.293-5.949 1.293-4.388 0-8.086-1.604-11.097-4.811zm.657-11.528c0 3.056 1.018 5.681 3.045 7.874 2.022 2.194 4.471 3.29 7.328 3.29 2.856 0 5.293-1.111 7.307-3.335 2.012-2.224 3.02-4.834 3.02-7.829s-1-5.605-2.996-7.829c-1.998-2.224-4.441-3.337-7.33-3.337s-5.34 1.098-7.352 3.291c-2.015 2.194-3.022 4.82-3.022 7.875zm35.039 16.339c-.697 0-1.287-.242-1.771-.728-.484-.482-.727-1.071-.727-1.77v-26.777c0-.696.241-1.283.727-1.769.484-.485 1.074-.727 1.771-.727.692 0 1.291.241 1.791.727s.748 1.072.748 1.769v24.236h12.301c.666 0 1.248.248 1.748.748.496.498.75 1.09.75 1.771 0 .681-.254 1.27-.75 1.771-.5.498-1.082.748-1.748.748h-14.84zm23.893-4.811c-3.011-3.207-4.515-7.049-4.515-11.528s1.504-8.321 4.515-11.528c3.012-3.207 6.68-4.81 11.008-4.81 4.324 0 7.992 1.626 11.006 4.878 3.009 3.253 4.513 7.088 4.513 11.505 0 4.419-1.527 8.229-4.582 11.438-1.361 1.515-2.994 2.7-4.902 3.563-1.902.862-3.889 1.293-5.943 1.293-4.393 0-8.088-1.604-11.1-4.811zm.657-11.528c0 3.056 1.013 5.681 3.041 7.874 2.027 2.194 4.472 3.29 7.328 3.29 2.861 0 5.297-1.111 7.31-3.335 2.014-2.224 3.019-4.834 3.019-7.829s-.996-5.605-2.994-7.829c-1.996-2.224-4.443-3.337-7.332-3.337-2.89 0-5.34 1.098-7.353 3.291-2.015 2.194-3.019 4.82-3.019 7.875z"/></svg>